<svg id="Layer_1" xmlns="http://www.w3.org/2000/svg" viewBox="0 0 245 240"><style>.st0{fill:#FFFFFF;}</style><path class="st0" d="M104.4 104c-5.7 0-10.2 5-10.2 11s4.6 11 10.2 11c5.7 0 10.2-5 10.2-11s-4.5-11-10.2-11zm36.5 0c-5.8 0-10.3 5-10.3 11s4.6 11 10.2 11 10-5 10-11-4.4-11-10-11z"/><path class="st0" d="M189.5 20h-134C44.2 20 35 29.2 35 40.6v135.2c0 11.4 9.2 20.6 20.5 20.6H169l-5.4-18.5 12.8 11.8 12 11.2 21.6 19V40.6c0-11.4-9.2-20.6-20.5-20.6zM151 150.6l-6.7-8c13-3.8 18-12 18-12-4 2.7-8 4.6-11.4 6-5 2-10 3.4-14.6 4.2-9.6 1.8-18.4 1.3-26 0-5.6-1.2-10.5-2.8-14.6-4.4-2.3-1-4.8-2-7.3-3.4l-1-.5-.3-.3-2.8-1.7s4.8 8 17.5 11.8l-6.8 8.3c-22-.7-30.5-15.2-30.5-15.2C64.7 103.2 79 77 79 77c14.5-10.7 28.2-10.4 28.2-10.4l1 1.2c-18 5.2-26.3 13-26.3 13s2-1 5.8-2.8c10.7-4.7 19.2-6 22.7-6.3l1.7-.2c6-.8 13-1 20.2-.2 9.5 1 19.7 4 30 9.6 0 0-7.8-7.6-24.8-12.8l1.4-1.6s13.7-.3 28 10.5c0 0 14.5 26.2 14.5 58.4 0 0-8.5 14.5-30.6 15.2z"/></svg>